<svg width="140" height="140" viewBox="0 0 140 140" fill="none" xmlns="http://www.w3.org/2000/svg">
<path d="M1.69806 83.2655C-1.26208 78.827 -0.251874 72.693 3.94817 69.5668C8.15083 66.4405 13.9562 67.5047 16.919 71.9432L17.0443 72.1306C20.0044 76.5692 18.9968 82.7004 14.7915 85.8294C10.5915 88.9556 4.78348 87.8915 1.82335 83.4502L1.69806 83.2655ZM94.0414 122.187L26.5851 21.7218C23.6276 17.264 24.6534 11.1162 28.877 7.99546C33.0979 4.87471 38.919 5.95815 41.8739 10.416L109.33 110.878C112.288 115.336 111.262 121.484 107.038 124.607C102.817 127.728 96.9963 126.644 94.0414 122.187ZM113.455 103.184L55.3276 15.5106C52.3727 11.0528 53.3986 4.90504 57.6195 1.78429C61.843 -1.33921 67.6641 -0.255776 70.619 4.2048L128.746 91.8779C131.701 96.3357 130.675 102.483 126.454 105.604C122.233 108.728 116.412 107.644 113.455 103.184ZM123.022 68.0478L89.8625 18.0386C86.9076 13.5781 87.9334 7.4303 92.1544 4.30956C96.3753 1.18881 102.196 2.27225 105.154 6.73006L138.311 56.7419C141.268 61.1998 140.242 67.3475 136.019 70.4683C131.798 73.5918 125.977 72.5083 123.022 68.0478ZM69.3556 135.797L11.2284 48.1241C8.27091 43.6635 9.29677 37.5185 13.5203 34.395C17.7412 31.2742 23.5623 32.3577 26.5172 36.8155L55.5808 80.652L84.6444 124.489C87.6019 128.949 86.5761 135.097 82.3525 138.218C78.1316 141.338 72.3105 140.255 69.3556 135.797ZM15.6869 104.41C12.7294 99.9527 13.7552 93.8049 17.9788 90.6842C22.1997 87.5607 28.0208 88.6441 30.9757 93.1047L50.1122 121.966C53.0671 126.424 52.0412 132.572 47.8203 135.692C43.5967 138.816 37.7757 137.732 34.8207 133.272L15.6869 104.41Z" fill="#A1BC98"/>
</svg>
