<svg width="22" height="22" viewBox="0 0 22 22" fill="none" xmlns="http://www.w3.org/2000/svg">
<path d="M3.32647 0H15.9176C16.7293 0.0382422 17.486 0.595547 17.7524 1.36469C17.9212 1.80727 17.8649 2.28723 17.8748 2.75C18.3556 2.75988 18.858 2.6993 19.313 2.89223C20.0886 3.18484 20.6334 3.98234 20.624 4.81164C20.6261 9.71094 20.6244 14.6107 20.6248 19.5104C20.6231 19.8198 20.6416 20.1352 20.5617 20.4377C20.3606 21.2987 19.5532 21.9587 18.6719 22H6.08205C5.28069 21.9592 4.53131 21.4178 4.25717 20.6615C4.0767 20.2125 4.13428 19.7218 4.12483 19.25C3.77334 19.2414 3.41842 19.2741 3.06994 19.2156C2.61018 19.1336 2.1835 18.8878 1.87842 18.535C1.54498 18.1547 1.36623 17.6486 1.37483 17.1437C1.37483 12.1305 1.37483 7.11734 1.37483 2.10461C1.36537 1.56922 1.56905 1.0334 1.93987 0.64668C2.2978 0.263828 2.80526 0.0352344 3.32647 0ZM2.75069 2.05863C2.74897 5.63191 2.74983 9.20477 2.75026 12.7776C3.45408 12.0742 4.15791 11.3704 4.86174 10.6661C4.97045 10.5596 5.07186 10.4363 5.21537 10.3744C5.46889 10.2579 5.79073 10.3134 5.9858 10.5145C6.62776 11.1525 7.26541 11.7945 7.90651 12.433C8.94205 11.4005 9.97459 10.3645 11.0093 9.33152C11.066 9.28769 11.0222 9.21336 11.0213 9.15621C10.9242 8.63586 11.1743 8.07727 11.6173 7.79152C12.0371 7.50535 12.6172 7.48902 13.0559 7.74297C13.5844 8.03559 13.8676 8.69988 13.7043 9.28297C13.5444 9.96359 12.8054 10.4371 12.12 10.285C11.9976 10.2317 11.9292 10.3641 11.8519 10.4324C10.6995 11.5861 9.54705 12.7394 8.39291 13.8914C8.14026 14.1569 7.67319 14.1582 7.42053 13.8918C6.77987 13.2529 6.14092 12.6118 5.50026 11.9728C4.6078 12.8631 3.71834 13.7569 2.82459 14.6459C2.79108 14.6841 2.73651 14.7202 2.74983 14.78C2.75026 15.5826 2.74897 16.3853 2.75069 17.1879C2.74037 17.554 3.07209 17.8819 3.4369 17.8741C7.56147 17.8754 11.686 17.8754 15.811 17.8741C16.1771 17.8845 16.5084 17.5549 16.499 17.1879C16.5003 12.146 16.5007 7.10402 16.499 2.06207C16.5071 1.6977 16.1801 1.36598 15.8145 1.37586C11.6886 1.37457 7.56276 1.37457 3.4369 1.37586C3.0708 1.36512 2.74166 1.69297 2.75069 2.05863ZM17.8748 4.125C17.874 8.47945 17.8761 12.8335 17.874 17.1875C17.883 17.9945 17.3682 18.7739 16.6227 19.0829C16.3559 19.201 16.0628 19.2504 15.7719 19.25C12.3482 19.2504 8.92401 19.2496 5.49983 19.25C5.50198 19.4945 5.4951 19.7394 5.50284 19.9839C5.51573 20.3328 5.83885 20.6306 6.18604 20.6241C10.3123 20.6254 14.4386 20.6254 18.5645 20.6241C18.9297 20.6323 19.2584 20.3032 19.249 19.9379C19.2511 14.9106 19.249 9.88324 19.2498 4.8559C19.2743 4.50785 19.0006 4.16797 18.6517 4.13188C18.393 4.11598 18.1335 4.1293 17.8748 4.125Z" fill="#757575"/>
</svg>
