<svg width="24" height="24" viewBox="0 0 24 24" fill="none" xmlns="http://www.w3.org/2000/svg">
<g clip-path="url(#clip0_3542_128)">
<path d="M12.1084 0.00585938C13.4986 -0.171112 14.9425 0.0717819 16.1904 0.712891C17.5237 1.39005 18.6291 2.50163 19.2998 3.83789H19.3008C20.0094 5.23462 20.2233 6.87263 19.9082 8.40625C19.6323 9.78282 18.9254 11.0666 17.9199 12.0449C16.8534 13.0888 15.45 13.7859 13.9688 13.9834V13.9824C12.5956 14.1756 11.1678 13.9489 9.92188 13.3408L9.67578 13.2148C8.27513 12.4675 7.14268 11.2324 6.51855 9.77246C5.94712 8.44951 5.80336 6.94919 6.10254 5.54004C6.41976 4.01638 7.26671 2.61334 8.45703 1.6123C9.48523 0.739716 10.7703 0.174698 12.1084 0.00585938ZM15.7715 1.73535C14.6623 1.14429 13.3611 0.928956 12.1191 1.11523H12.1182C10.7332 1.31874 9.43406 2.03507 8.51758 3.0918L8.5166 3.09277C7.54889 4.19153 7.014 5.65941 7.05176 7.12305C7.07259 8.42721 7.54668 9.71626 8.36719 10.7295L8.53613 10.9287C9.46736 11.9919 10.7881 12.7067 12.1895 12.8945C13.4732 13.0728 14.8147 12.8184 15.9385 12.1709L16.1699 12.0332C17.3073 11.3171 18.1921 10.2057 18.627 8.93359V8.93262C19.0825 7.61948 19.0538 6.14507 18.5479 4.85059V4.84961C18.0676 3.60617 17.1533 2.53867 16.0039 1.86523L15.7715 1.73535Z" fill="#757575" stroke="#757575" stroke-width="0.1"/>
<path d="M5.06396 13.8721V13.873C5.28828 13.859 5.50994 14.0044 5.58154 14.2168L5.60205 14.3125L5.60303 14.3135H5.60205C5.61066 14.4238 5.61166 14.5341 5.61084 14.6426C5.61014 14.7342 5.60971 14.8241 5.61084 14.9141C6.75131 14.8512 7.89863 14.888 9.03174 15.0371L9.52393 15.1094L10.0923 15.2148C11.4175 15.4861 12.7236 15.9408 13.8306 16.7393L14.0054 16.8691C14.396 17.1703 14.7481 17.5198 15.0571 17.9043C15.9442 17.2087 16.8762 16.5604 17.8882 16.0527V16.0518C18.7543 15.623 19.6907 15.2748 20.6714 15.2256C21.3094 15.1972 21.9988 15.3182 22.5122 15.7402C22.921 16.0703 23.1618 16.6007 23.1196 17.1279C23.0913 17.6143 22.8399 18.0585 22.5034 18.3926L22.5044 18.3936C21.2747 19.6862 19.896 20.8475 18.3687 21.7764C17.4459 22.3306 16.4576 22.797 15.4077 23.0615C14.7009 23.2411 13.9658 23.3198 13.2368 23.2715L12.9253 23.2432C11.6544 23.1113 10.4275 22.7344 9.21143 22.3848H9.21045C8.40876 22.1265 7.53683 22.0589 6.71631 22.252C6.31662 22.347 5.93532 22.5217 5.60889 22.7705C5.60676 23.0581 5.6146 23.3522 5.60596 23.6426C5.59967 23.9235 5.3352 24.1442 5.06201 24.126C3.84303 24.1264 2.6239 24.1293 1.40479 24.127V24.125C1.11486 24.1399 0.855041 23.8831 0.873535 23.5918C0.87213 20.5294 0.872598 17.4672 0.873535 14.4053C0.856231 14.1125 1.11859 13.8551 1.40967 13.873C2.62754 13.8712 3.84568 13.8711 5.06396 13.8721ZM1.896 14.8955C1.89554 17.6312 1.89554 20.3669 1.896 23.1025C2.17018 23.1029 2.44404 23.1025 2.71826 23.1025L2.71924 16.2812C2.71092 16.1105 2.77654 15.9295 2.92236 15.8232L3.00928 15.7695C3.22201 15.6672 3.50141 15.7301 3.64014 15.9277H3.64111C3.70086 16.0031 3.72552 16.0896 3.73584 16.1748C3.74597 16.2586 3.7429 16.3469 3.74268 16.4229C3.73849 18.6465 3.74728 20.8715 3.73779 23.0957C4.02059 23.1078 4.29944 23.1005 4.58643 23.1035C4.58646 20.3671 4.58947 17.6308 4.58447 14.8945C3.68837 14.8975 2.79171 14.8939 1.896 14.8955ZM5.60986 15.9414C5.60941 17.8182 5.60942 19.6955 5.60986 21.5723C6.47242 21.1559 7.45854 21.0555 8.39795 21.1641C8.74172 21.1987 9.07528 21.28 9.40283 21.373C9.73249 21.4668 10.0533 21.5712 10.3813 21.6562V21.6572L11.2651 21.8936C12.152 22.1194 13.0501 22.2943 13.9634 22.2529C15.3513 22.1734 16.6597 21.6018 17.8462 20.8936C19.242 20.0459 20.501 18.985 21.6401 17.8164C21.8461 17.6038 22.0598 17.3966 22.0962 17.1133V17.1113L22.104 17.0166C22.1021 16.7955 21.9647 16.5844 21.772 16.4668L21.771 16.4658C21.4085 16.2406 20.9564 16.2183 20.5298 16.2588L20.5308 16.2598C19.7515 16.3427 19.01 16.6368 18.3081 16.9873V16.9863C17.3698 17.4643 16.5006 18.0661 15.6753 18.7217L15.3247 19.0059C14.9929 19.2836 14.5925 19.4787 14.1665 19.5615C13.5246 19.6915 12.8658 19.6154 12.2407 19.457L11.9741 19.3848C11.2355 19.1585 10.5265 18.8366 9.86377 18.4414V18.4404C9.72502 18.3646 9.60228 18.2354 9.57373 18.0664V18.0654C9.52288 17.8241 9.67407 17.5656 9.90674 17.4883C10.0693 17.4271 10.2464 17.4706 10.3813 17.5576H10.3823C11.009 17.9392 11.6864 18.2416 12.3931 18.4395L12.6265 18.4971C13.1537 18.6168 13.7052 18.6623 14.2114 18.4854C13.5834 17.7149 12.722 17.1609 11.8042 16.7852H11.8032C10.7474 16.3522 9.61632 16.1232 8.48096 16.0059C7.52791 15.9088 6.56675 15.8882 5.60986 15.9414Z" fill="#757575" stroke="#757575" stroke-width="0.1"/>
<path d="M13.0264 2.2148C13.2308 1.93982 13.6849 1.92673 13.9058 2.1878C14.1299 2.44068 14.0417 2.80651 14.0615 3.11341C14.6689 3.30164 15.3134 3.55943 15.6884 4.09958C15.9381 4.44331 15.6595 4.97936 15.2335 4.98018C14.8148 5.01291 14.6648 4.53169 14.3005 4.42203C13.6684 4.05375 12.752 4.14377 12.3275 4.77721C11.983 5.24043 12.1891 5.92297 12.6654 6.20941C13.1401 6.55723 13.7582 6.39028 14.2865 6.57524C15.2862 6.85513 16.0864 7.83393 15.9925 8.88885C15.9307 9.91267 15.067 10.7409 14.0879 10.9561C14.0829 11.2393 14.167 11.5732 13.956 11.8064C13.7475 12.0577 13.3214 12.0659 13.1047 11.822C12.8813 11.5953 12.9572 11.2516 12.9349 10.9668C12.3325 10.8309 11.8001 10.47 11.402 10.0092C11.163 9.66797 11.435 9.15237 11.8479 9.13764C12.1849 9.10409 12.3902 9.41263 12.6341 9.58695C13.3371 10.1631 14.6491 9.82592 14.8321 8.89376C14.9541 8.19157 14.2544 7.62033 13.5934 7.61297C12.9267 7.60969 12.2476 7.40346 11.7514 6.95006C11.1515 6.4312 10.8597 5.57761 11.0657 4.80831C11.2817 3.94654 12.0514 3.29837 12.9094 3.11095C12.9275 2.81387 12.8253 2.46851 13.0264 2.2148Z" fill="#757575"/>
</g>
<defs>
<clipPath id="clip0_3542_128">
<rect width="24" height="24" fill="white"/>
</clipPath>
</defs>
</svg>
