<svg width="22" height="11" viewBox="0 0 22 11" fill="none" xmlns="http://www.w3.org/2000/svg">
<path fill-rule="evenodd" clip-rule="evenodd" d="M21.0454 0.0608335C21.4261 0.224 21.6024 0.664909 21.4393 1.04563L20.7499 0.750192C21.4393 1.04563 21.4393 1.04563 21.4393 1.04563L21.4386 1.04731L21.4375 1.0498L21.4343 1.05716L21.4236 1.08123C21.4146 1.10137 21.4018 1.12958 21.3852 1.16527C21.3519 1.23662 21.3033 1.33794 21.2388 1.46435C21.1099 1.717 20.9175 2.07087 20.6584 2.48666C20.2328 3.1697 19.6224 4.02785 18.8119 4.88037L19.7803 5.8487C20.0731 6.14159 20.0731 6.61647 19.7803 6.90936C19.4874 7.20225 19.0125 7.20225 18.7196 6.90936L17.719 5.90878C17.0593 6.46147 16.3028 6.98022 15.445 7.40642L16.3786 8.84115C16.6045 9.18834 16.5062 9.65292 16.159 9.87883C15.8118 10.1047 15.3472 10.0064 15.1213 9.65923L14.0321 7.98534C13.2528 8.23985 12.409 8.41281 11.4999 8.47481V10.2502C11.4999 10.6644 11.1641 11.0002 10.7499 11.0002C10.3357 11.0002 9.99992 10.6644 9.99992 10.2502V8.47481C9.11889 8.41472 8.29909 8.2504 7.53982 8.00859L6.46575 9.6593C6.23984 10.0065 5.77526 10.1048 5.42807 9.8789C5.08089 9.65299 4.98257 9.18841 5.20847 8.84122L6.12089 7.43896C5.2565 7.01685 4.49381 6.50036 3.82842 5.94845L2.86744 6.90943C2.57455 7.20232 2.09968 7.20232 1.80678 6.90943C1.51389 6.61654 1.51389 6.14166 1.80678 5.84877L2.73055 4.92501C1.90599 4.06532 1.28525 3.19675 0.852769 2.50486C0.589844 2.08423 0.394595 1.72584 0.263882 1.46988C0.198481 1.34182 0.149104 1.23914 0.11537 1.16683C0.0985 1.13067 0.0855303 1.10207 0.0764146 1.08167L0.0656212 1.05729L0.0623784 1.04984L0.0612933 1.04733L0.0608846 1.04638C0.0608846 1.04638 0.060565 1.04563 0.749924 0.750192L0.0608846 1.04638C-0.102282 0.665654 0.073762 0.224 0.454484 0.0608335C0.834893 -0.102199 1.27539 0.0737405 1.43888 0.453813L1.43983 0.456004L1.44591 0.469718C1.4518 0.482913 1.4614 0.5041 1.47472 0.532672C1.50139 0.589831 1.54296 0.676442 1.59976 0.787666C1.71345 1.01029 1.88762 1.33046 2.12472 1.70979C2.60033 2.47067 3.32157 3.45728 4.30561 4.37178C5.17151 5.1765 6.23259 5.91775 7.50165 6.406C8.45614 6.77322 9.53537 7.00019 10.7499 7.00019C11.9916 7.00019 13.092 6.76295 14.0624 6.38101C15.3238 5.88452 16.3777 5.13844 17.2366 4.33218C18.2062 3.42216 18.9168 2.44535 19.3854 1.6934C19.619 1.3185 19.7905 1.00246 19.9025 0.782861C19.9585 0.673146 19.9994 0.587761 20.0257 0.531438C20.0388 0.503284 20.0483 0.482418 20.0541 0.469433L20.06 0.45595L20.0606 0.454753M21.0454 0.0608335C20.6647 -0.102291 20.2238 0.0742336 20.0606 0.454753L21.0454 0.0608335Z" fill="#3C4351"/>
</svg>
